<mxfile>
    <diagram id="6P5VS2ljiirBWv7LHv3P" name="Page-1">
        <mxGraphModel dx="542" dy="344" grid="1" gridSize="10" guides="1" tooltips="1" connect="1" arrows="1" fold="1" page="1" pageScale="1" pageWidth="827" pageHeight="1169" math="0" shadow="0">
            <root>
                <mxCell id="0"/>
                <mxCell id="1" parent="0"/>
                <mxCell id="16" style="edgeStyle=orthogonalEdgeStyle;rounded=0;orthogonalLoop=1;jettySize=auto;html=1;" parent="1" source="15" target="17" edge="1">
                    <mxGeometry relative="1" as="geometry">
                        <mxPoint x="414" y="139.9999999999999" as="targetPoint"/>
                    </mxGeometry>
                </mxCell>
                <mxCell id="15" value="start" style="rounded=1;whiteSpace=wrap;html=1;" parent="1" vertex="1">
                    <mxGeometry x="354" y="40" width="120" height="60" as="geometry"/>
                </mxCell>
                <mxCell id="19" style="edgeStyle=orthogonalEdgeStyle;rounded=0;orthogonalLoop=1;jettySize=auto;html=1;" parent="1" source="17" target="18" edge="1">
                    <mxGeometry relative="1" as="geometry"/>
                </mxCell>
                <mxCell id="17" value="i = 0" style="rounded=0;whiteSpace=wrap;html=1;" parent="1" vertex="1">
                    <mxGeometry x="354" y="179.9999999999999" width="120" height="60" as="geometry"/>
                </mxCell>
                <mxCell id="20" style="edgeStyle=orthogonalEdgeStyle;rounded=0;orthogonalLoop=1;jettySize=auto;html=1;" parent="1" source="18" target="22" edge="1">
                    <mxGeometry relative="1" as="geometry">
                        <mxPoint x="320" y="420.0000000000002" as="targetPoint"/>
                    </mxGeometry>
                </mxCell>
                <mxCell id="28" style="edgeStyle=orthogonalEdgeStyle;rounded=0;orthogonalLoop=1;jettySize=auto;html=1;entryX=0.5;entryY=0;entryDx=0;entryDy=0;" parent="1" source="18" target="27" edge="1">
                    <mxGeometry relative="1" as="geometry"/>
                </mxCell>
                <mxCell id="18" value="i &amp;lt;= 9" style="rhombus;whiteSpace=wrap;html=1;" parent="1" vertex="1">
                    <mxGeometry x="374" y="320" width="80" height="80" as="geometry"/>
                </mxCell>
                <mxCell id="24" style="edgeStyle=orthogonalEdgeStyle;rounded=0;orthogonalLoop=1;jettySize=auto;html=1;" parent="1" source="22" target="31" edge="1">
                    <mxGeometry relative="1" as="geometry">
                        <mxPoint x="280" y="560" as="targetPoint"/>
                    </mxGeometry>
                </mxCell>
                <mxCell id="22" value="i" style="shape=display;whiteSpace=wrap;html=1;" parent="1" vertex="1">
                    <mxGeometry x="240" y="440" width="80" height="40" as="geometry"/>
                </mxCell>
                <mxCell id="25" style="edgeStyle=orthogonalEdgeStyle;rounded=0;orthogonalLoop=1;jettySize=auto;html=1;entryX=0;entryY=0;entryDx=0;entryDy=0;exitX=0.5;exitY=1;exitDx=0;exitDy=0;" parent="1" source="31" target="18" edge="1">
                    <mxGeometry relative="1" as="geometry">
                        <Array as="points">
                            <mxPoint x="280" y="700"/>
                            <mxPoint x="160" y="700"/>
                            <mxPoint x="160" y="300"/>
                            <mxPoint x="394" y="300"/>
                        </Array>
                        <mxPoint x="280" y="600" as="sourcePoint"/>
                    </mxGeometry>
                </mxCell>
                <mxCell id="27" value="End" style="rounded=1;whiteSpace=wrap;html=1;" parent="1" vertex="1">
                    <mxGeometry x="490" y="440" width="120" height="60" as="geometry"/>
                </mxCell>
                <mxCell id="29" value="True" style="text;html=1;strokeColor=none;fillColor=none;align=center;verticalAlign=middle;whiteSpace=wrap;rounded=0;" parent="1" vertex="1">
                    <mxGeometry x="314" y="340" width="40" height="20" as="geometry"/>
                </mxCell>
                <mxCell id="30" value="False" style="text;html=1;strokeColor=none;fillColor=none;align=center;verticalAlign=middle;whiteSpace=wrap;rounded=0;" parent="1" vertex="1">
                    <mxGeometry x="480" y="340" width="40" height="20" as="geometry"/>
                </mxCell>
                <mxCell id="31" value="i += 1" style="rounded=0;whiteSpace=wrap;html=1;" parent="1" vertex="1">
                    <mxGeometry x="220" y="560" width="120" height="60" as="geometry"/>
                </mxCell>
                <mxCell id="33" value="&lt;h1&gt;การไล่โค้ด&lt;/h1&gt;&lt;p&gt;น้อย --&amp;gt; มาก (Loop แบบเพิ่มค่า)&lt;br&gt;&lt;/p&gt;&lt;p&gt;for i in range(0, 10):&lt;/p&gt;&lt;p&gt;--&amp;gt; i = 0, 1, 2, 3, 4, 5, 6, 7, 8, 9&lt;/p&gt;&lt;p&gt;Logic การจบ --&amp;gt; จบก่อนตัวสุดท้าย&lt;br&gt;&lt;/p&gt;&lt;p&gt;ผมจะให้จบก่อนตัวสุดท้าย 1 ในที่นี้ ก็คือ 9&lt;br&gt;&lt;/p&gt;" style="text;html=1;strokeColor=none;fillColor=none;spacing=5;spacingTop=-20;whiteSpace=wrap;overflow=hidden;rounded=0;" parent="1" vertex="1">
                    <mxGeometry x="40" y="40" width="250" height="180" as="geometry"/>
                </mxCell>
            </root>
        </mxGraphModel>
    </diagram>
</mxfile>